<svg xmlns="http://www.w3.org/2000/svg" width="16" height="16" viewBox="0 0 16 16"><g clip-path="url(#a)"><path fill-rule="evenodd" d="m5.738 9.067 2.264 1.548 2.182-1.505 4.892 4.826q-.195.063-.41.064H1.334q-.265-.002-.499-.096zM16 5.101v7.565c0 .198-.043.385-.12.554l-4.795-4.731zM0 5.143 4.834 8.45l-4.75 4.686A1.4 1.4 0 0 1 0 12.666zM14.666 2C15.402 2 16 2.597 16 3.334v.468L7.998 9.318 0 3.848v-.514C0 2.598.597 2 1.334 2z" clip-rule="evenodd"/></g><defs><clipPath id="a"><path d="M0 0h16v16H0z"/></clipPath></defs></svg>