<svg xmlns="http://www.w3.org/2000/svg" width="16" height="16" viewBox="0 0 16 16"><path fill-rule="evenodd" d="M14.666 2C15.402 2 16 2.597 16 3.334v9.332c0 .736-.597 1.334-1.334 1.334H1.334A1.334 1.334 0 0 1 0 12.666V3.334C0 2.598.597 2 1.334 2zM5.734 9.062l-3.928 3.882h12.26l-3.885-3.842L8 10.612zm9.178-3.228-3.837 2.652 3.837 3.79zm-13.823.048v6.27l3.749-3.706zm13.565-2.825H1.358a.3.3 0 0 0-.2.069.21.21 0 0 0-.068.177V4.6L8 9.325l6.915-4.772V3.359q0-.16-.073-.233a.24.24 0 0 0-.188-.07" clip-rule="evenodd"/></svg>