<svg xmlns="http://www.w3.org/2000/svg" width="16" height="16" viewBox="0 0 16 16"><path d="M2.256 7.948c0 1.011.265 2 .77 2.87l-.818 2.974 3.058-.798a5.8 5.8 0 0 0 2.756.699h.002c3.18 0 5.767-2.575 5.768-5.74a5.7 5.7 0 0 0-1.688-4.062 5.75 5.75 0 0 0-4.08-1.683c-3.18 0-5.767 2.575-5.768 5.74"/><path d="M2.05 7.946c0 1.048.275 2.071.798 2.973L2 14l3.167-.827a6 6 0 0 0 2.856.724h.002c3.293 0 5.974-2.668 5.975-5.946 0-1.59-.62-3.083-1.748-4.207A5.95 5.95 0 0 0 8.025 2C4.732 2 2.051 4.667 2.05 7.946m1.886 2.818-.118-.187a4.9 4.9 0 0 1-.759-2.63C3.06 5.22 5.288 3.003 8.027 3.003c1.327 0 2.573.516 3.51 1.45a4.9 4.9 0 0 1 1.454 3.496c-.001 2.725-2.229 4.943-4.966 4.943h-.002a5 5 0 0 1-2.527-.69l-.182-.106-1.88.49z"/><path d="M6.532 5.46c-.112-.247-.23-.252-.336-.257C6.109 5.2 6.009 5.2 5.91 5.2a.55.55 0 0 0-.398.186c-.137.149-.523.508-.523 1.24 0 .73.535 1.437.61 1.537s1.032 1.647 2.55 2.243c1.261.495 1.518.396 1.791.372.274-.025.884-.36 1.008-.707s.124-.644.087-.706-.137-.1-.286-.174a25 25 0 0 0-1.02-.483c-.137-.05-.236-.075-.336.074s-.386.483-.473.583-.174.111-.323.037-.63-.231-1.2-.738a4.5 4.5 0 0 1-.831-1.029c-.087-.148-.01-.229.065-.303.067-.067.15-.174.224-.26s.1-.15.15-.248c.05-.1.024-.186-.013-.26s-.327-.81-.46-1.104"/><defs><linearGradient id="a" x1="602" x2="602" y1="1202" y2="2" gradientUnits="userSpaceOnUse"><stop stop-color="#1FAF38"/><stop offset="1" stop-color="#60D669"/></linearGradient><linearGradient id="b" x1="602" x2="602" y1="1202" y2="2" gradientUnits="userSpaceOnUse"><stop stop-color="#F9F9F9"/><stop offset="1" stop-color="#fff"/></linearGradient></defs></svg>