<svg xmlns="http://www.w3.org/2000/svg" width="16" height="16" viewBox="0 0 16 16"><path d="M9.695 8.605q.102 0 .762.34.66.342.7.412.015.038.015.116 0 .255-.133.589-.124.302-.555.508a1.9 1.9 0 0 1-.796.205q-.445 0-1.485-.48a4.5 4.5 0 0 1-1.328-.915q-.562-.566-1.156-1.434-.562-.83-.555-1.504V6.38q.023-.705.578-1.225a.6.6 0 0 1 .406-.17q.048 0 .141.011.094.012.149.012.147 0 .207.05a.6.6 0 0 1 .12.213q.063.156.258.682.196.528.196.582 0 .162-.27.446-.27.282-.27.36a.2.2 0 0 0 .04.116q.265.567.797 1.062.437.411 1.18.783.094.055.171.055.117 0 .422-.376t.406-.376M8.11 12.713q.993 0 1.903-.387a5 5 0 0 0 1.566-1.04 4.9 4.9 0 0 0 1.047-1.553q.39-.904.39-1.888 0-.985-.39-1.888a4.9 4.9 0 0 0-1.047-1.554 5 5 0 0 0-1.566-1.039 4.8 4.8 0 0 0-1.903-.387q-.992 0-1.902.387a5 5 0 0 0-1.566 1.04 4.9 4.9 0 0 0-1.047 1.553 4.7 4.7 0 0 0-.39 1.888q0 1.574.937 2.853l-.618 1.806 1.891-.597a4.83 4.83 0 0 0 2.695.806M8.11 2q1.196 0 2.286.465 1.089.465 1.878 1.248a5.9 5.9 0 0 1 1.258 1.865A5.6 5.6 0 0 1 14 7.845a5.6 5.6 0 0 1-.469 2.267 5.9 5.9 0 0 1-1.258 1.865 6 6 0 0 1-1.878 1.248 5.8 5.8 0 0 1-2.286.465 5.84 5.84 0 0 1-2.851-.729L2 14l1.063-3.14a5.67 5.67 0 0 1-.844-3.015q0-1.186.469-2.267a5.9 5.9 0 0 1 1.257-1.865 6 6 0 0 1 1.88-1.248A5.8 5.8 0 0 1 8.108 2"/></svg>