<svg width="400" height="16" viewBox="0 0 400 16" fill="none" xmlns="http://www.w3.org/2000/svg">
<path d="M8.5 11V7H6.5V8H7.5V11H6V12H10V11H8.5ZM8 4C7.85166 4 7.70666 4.04399 7.58332 4.1264C7.45999 4.20881 7.36386 4.32594 7.30709 4.46299C7.25032 4.60003 7.23547 4.75083 7.26441 4.89632C7.29335 5.0418 7.36478 5.17544 7.46967 5.28033C7.57456 5.38522 7.7082 5.45665 7.85368 5.48559C7.99917 5.51453 8.14997 5.49968 8.28701 5.44291C8.42406 5.38614 8.54119 5.29001 8.6236 5.16668C8.70601 5.04334 8.75 4.89834 8.75 4.75C8.75 4.55109 8.67098 4.36032 8.53033 4.21967C8.38968 4.07902 8.19891 4 8 4Z" fill="white"/>
<path d="M8 15C6.61553 15 5.26215 14.5895 4.11101 13.8203C2.95986 13.0511 2.06266 11.9579 1.53284 10.6788C1.00303 9.3997 0.864406 7.99223 1.1345 6.63437C1.4046 5.2765 2.07128 4.02922 3.05025 3.05025C4.02922 2.07128 5.2765 1.4046 6.63437 1.1345C7.99223 0.864406 9.3997 1.00303 10.6788 1.53284C11.9579 2.06266 13.0511 2.95986 13.8203 4.11101C14.5895 5.26215 15 6.61553 15 8C15 9.85652 14.2625 11.637 12.9497 12.9497C11.637 14.2625 9.85652 15 8 15ZM8 2C6.81331 2 5.65327 2.35189 4.66658 3.01118C3.67988 3.67047 2.91085 4.60754 2.45672 5.7039C2.0026 6.80026 1.88378 8.00666 2.11529 9.17054C2.3468 10.3344 2.91824 11.4035 3.75736 12.2426C4.59647 13.0818 5.66557 13.6532 6.82946 13.8847C7.99334 14.1162 9.19974 13.9974 10.2961 13.5433C11.3925 13.0892 12.3295 12.3201 12.9888 11.3334C13.6481 10.3467 14 9.18669 14 8C14 6.4087 13.3679 4.88258 12.2426 3.75736C11.1174 2.63214 9.5913 2 8 2Z" fill="white"/>
<path d="M27 8L22 13L21.3 12.3L25.6 8L21.3 3.7L22 3L27 8Z" fill="white"/>
<path d="M37 8L42 3L42.7 3.7L38.4 8L42.7 12.3L42 13L37 8Z" fill="white"/>
<path d="M51.5 10.2L48 6.7L48.7 6L51.5 8.8L54.3 6L55 6.7L51.5 10.2Z" fill="white"/>
<path d="M72 1C70.6155 1 69.2622 1.41054 68.111 2.17971C66.9599 2.94888 66.0627 4.04213 65.5328 5.32122C65.003 6.6003 64.8644 8.00776 65.1345 9.36563C65.4046 10.7235 66.0713 11.9708 67.0503 12.9497C68.0292 13.9287 69.2765 14.5954 70.6344 14.8655C71.9922 15.1356 73.3997 14.997 74.6788 14.4672C75.9579 13.9373 77.0511 13.0401 77.8203 11.889C78.5895 10.7378 79 9.38447 79 8C79 6.14348 78.2625 4.36301 76.9497 3.05025C75.637 1.7375 73.8565 1 72 1ZM72 14C70.8133 14 69.6533 13.6481 68.6666 12.9888C67.6799 12.3295 66.9109 11.3925 66.4567 10.2961C66.0026 9.19974 65.8838 7.99334 66.1153 6.82946C66.3468 5.66557 66.9182 4.59647 67.7574 3.75736C68.5965 2.91824 69.6656 2.3468 70.8295 2.11529C71.9933 1.88378 73.1997 2.0026 74.2961 2.45672C75.3925 2.91085 76.3295 3.67988 76.9888 4.66658C77.6481 5.65327 78 6.81331 78 8C78 9.5913 77.3679 11.1174 76.2426 12.2426C75.1174 13.3679 73.5913 14 72 14Z" fill="white"/>
<path d="M88 11L83 6L83.7 5.3L88 9.6L92.3 5.3L93 6L88 11Z" fill="white"/>
<path d="M104 1C102.616 1 101.262 1.41054 100.111 2.17971C98.9599 2.94888 98.0627 4.04213 97.5328 5.32122C97.003 6.6003 96.8644 8.00776 97.1345 9.36563C97.4046 10.7235 98.0713 11.9708 99.0503 12.9497C100.029 13.9287 101.277 14.5954 102.634 14.8655C103.992 15.1356 105.4 14.997 106.679 14.4672C107.958 13.9373 109.051 13.0401 109.82 11.889C110.589 10.7378 111 9.38447 111 8C111 6.14348 110.263 4.36301 108.95 3.05025C107.637 1.7375 105.857 1 104 1Z" fill="white"/>
<path d="M126.5 13.793L122.724 10.017C123.631 8.92766 124.084 7.53042 123.987 6.11595C123.891 4.70149 123.253 3.3787 122.206 2.42276C121.159 1.46682 119.783 0.951337 118.366 0.983543C116.949 1.01575 115.598 1.59316 114.596 2.59567C113.593 3.59818 113.016 4.94859 112.984 6.36598C112.951 7.78337 113.467 9.15861 114.423 10.2056C115.379 11.2526 116.701 11.8908 118.116 11.9873C119.53 12.0839 120.928 11.6314 122.017 10.724L125.793 14.5L126.5 13.793ZM114 6.5C114 5.60998 114.264 4.73996 114.758 3.99993C115.253 3.25991 115.956 2.68314 116.778 2.34254C117.6 2.00195 118.505 1.91283 119.378 2.08647C120.251 2.2601 121.053 2.68868 121.682 3.31802C122.311 3.94736 122.74 4.74918 122.914 5.62209C123.087 6.49501 122.998 7.39981 122.657 8.22208C122.317 9.04434 121.74 9.74715 121 10.2416C120.26 10.7361 119.39 11 118.5 11C117.307 10.9987 116.163 10.5241 115.319 9.68052C114.476 8.83689 114.001 7.69307 114 6.5Z" fill="white"/>
<g clip-path="url(#clip0_250_1297)">
<path fill-rule="evenodd" clip-rule="evenodd" d="M133.738 9.0672L136.002 10.6152L138.184 9.1096L143.076 13.936C142.947 13.9781 142.81 13.9995 142.666 14H129.334C129.158 14 128.99 13.9656 128.835 13.904L133.738 9.0672ZM144 5.1008V12.6664C144 12.864 143.957 13.0512 143.88 13.22L139.085 8.4888L144 5.1008ZM128 5.1432L132.834 8.4488L128.085 13.1352C128.029 12.9851 128 12.8264 128 12.6664V5.1432ZM142.666 2C143.402 2 144 2.5968 144 3.3336V3.8024L135.998 9.3184L128 3.848V3.3336C128 2.5976 128.597 2 129.334 2H142.666Z" fill="white"/>
</g>
<path d="M152 1C150.616 1 149.262 1.41054 148.111 2.17971C146.96 2.94888 146.063 4.04213 145.533 5.32122C145.003 6.6003 144.864 8.00776 145.135 9.36563C145.405 10.7235 146.071 11.9708 147.05 12.9497C148.029 13.9287 149.277 14.5954 150.634 14.8655C151.992 15.1356 153.4 14.997 154.679 14.4672C155.958 13.9373 157.051 13.0401 157.82 11.889C158.589 10.7378 159 9.38447 159 8C159 6.14348 158.263 4.36301 156.95 3.05025C155.637 1.7375 153.857 1 152 1ZM152 4C152.148 4 152.293 4.04399 152.417 4.1264C152.54 4.20881 152.636 4.32594 152.693 4.46299C152.75 4.60003 152.765 4.75083 152.736 4.89632C152.707 5.0418 152.635 5.17544 152.53 5.28033C152.425 5.38522 152.292 5.45665 152.146 5.48559C152.001 5.51453 151.85 5.49968 151.713 5.44291C151.576 5.38614 151.459 5.29001 151.376 5.16668C151.294 5.04334 151.25 4.89834 151.25 4.75C151.25 4.55109 151.329 4.36032 151.47 4.21967C151.61 4.07902 151.801 4 152 4ZM154 12.0625H150V10.9375H151.438V8.0625H150.5V6.9375H152.563V10.9375H154V12.0625Z" fill="white"/>
<path fill-rule="evenodd" clip-rule="evenodd" d="M174.666 2C175.402 2 176 2.5968 176 3.3336V12.6664C176 13.4024 175.403 14 174.666 14H161.334C160.598 14 160 13.4032 160 12.6664V3.3336C160 2.5976 160.597 2 161.334 2H174.666ZM165.734 9.0624L161.806 12.944H174.066L170.181 9.1024L168 10.612L165.734 9.0624ZM174.912 5.8336L171.075 8.4864L174.912 12.2752V5.8336ZM161.089 5.8824V12.1512L164.838 8.4464L161.089 5.8824ZM174.654 3.0568H161.358C161.285 3.05354 161.214 3.07813 161.158 3.1256C161.134 3.14766 161.115 3.17529 161.103 3.20617C161.091 3.23706 161.087 3.27032 161.09 3.3032V4.5992L168 9.3248L174.915 4.5528V3.3592C174.916 3.25253 174.891 3.17467 174.842 3.1256C174.817 3.10138 174.788 3.0827 174.755 3.07083C174.723 3.05896 174.689 3.05418 174.654 3.0568" fill="white"/>
<path d="M189 14.5H188.915C179.09 13.935 177.695 5.645 177.5 3.115C177.484 2.91829 177.508 2.72041 177.568 2.53271C177.629 2.345 177.727 2.17115 177.855 2.02113C177.983 1.8711 178.14 1.74784 178.316 1.65842C178.491 1.569 178.683 1.51516 178.88 1.5H181.635C181.835 1.49981 182.031 1.55975 182.197 1.67208C182.363 1.78441 182.491 1.94393 182.565 2.13L183.325 4C183.398 4.18177 183.416 4.38104 183.377 4.57305C183.338 4.76505 183.243 4.94134 183.105 5.08L182.04 6.155C182.206 7.10037 182.659 7.97183 183.337 8.65148C184.015 9.33112 184.885 9.78615 185.83 9.955L186.915 8.88C187.056 8.74308 187.234 8.65062 187.427 8.61417C187.62 8.57771 187.819 8.59887 188 8.675L189.885 9.43C190.068 9.50644 190.225 9.63571 190.334 9.80133C190.444 9.96696 190.501 10.1614 190.5 10.36V13C190.5 13.3978 190.342 13.7794 190.061 14.0607C189.779 14.342 189.398 14.5 189 14.5ZM179 2.5C178.867 2.5 178.74 2.55268 178.646 2.64645C178.553 2.74021 178.5 2.86739 178.5 3V3.04C178.73 6 180.205 13 188.97 13.5C189.036 13.5041 189.102 13.4951 189.164 13.4737C189.226 13.4522 189.283 13.4187 189.333 13.375C189.382 13.3314 189.422 13.2784 189.451 13.2192C189.479 13.16 189.496 13.0957 189.5 13.03V10.36L187.615 9.605L186.18 11.03L185.94 11C181.59 10.455 181 6.105 181 6.06L180.97 5.82L182.39 4.385L181.64 2.5H179Z" fill="white"/>
<path d="M202.165 10.74L203.285 9.62C203.436 9.47102 203.627 9.36904 203.834 9.32644C204.042 9.28383 204.258 9.30244 204.455 9.38L205.82 9.925C206.019 10.0059 206.19 10.1441 206.311 10.3221C206.432 10.5 206.498 10.7098 206.5 10.925V13.425C206.499 13.5714 206.468 13.716 206.41 13.8502C206.351 13.9844 206.266 14.1053 206.159 14.2058C206.053 14.3062 205.927 14.3841 205.79 14.4346C205.652 14.4852 205.506 14.5074 205.36 14.5C195.795 13.905 193.865 5.805 193.5 2.705C193.483 2.55277 193.499 2.39867 193.545 2.25285C193.592 2.10704 193.67 1.9728 193.772 1.85897C193.875 1.74514 194 1.6543 194.14 1.59243C194.28 1.53056 194.432 1.49906 194.585 1.5H197C197.216 1.50064 197.426 1.56573 197.604 1.68691C197.782 1.8081 197.92 1.97982 198 2.18L198.545 3.545C198.625 3.74153 198.646 3.95732 198.604 4.16541C198.562 4.37349 198.46 4.56465 198.31 4.715L197.19 5.835C197.19 5.835 197.835 10.2 202.165 10.74Z" fill="white"/>
<path d="M213.725 5.61L208.64 6.35L212.32 9.935L211.45 15L216 12.61V1L213.725 5.61Z" fill="white"/>
<path d="M232 1L229.725 5.61L224.64 6.345L228.32 9.935L227.45 15L232 12.61L236.55 15L235.68 9.935L239.36 6.35L234.275 5.61L232 1Z" fill="white"/>
<path d="M248 3.26L249.38 6.05L249.61 6.55L250.11 6.625L253.19 7.07L251 9.22L250.625 9.585L250.715 10.085L251.24 13.15L248.485 11.705L248 11.5L247.535 11.745L244.78 13.17L245.28 10.105L245.37 9.605L245 9.22L242.79 7.045L245.87 6.6L246.37 6.525L246.6 6.025L248 3.26ZM248 1L245.725 5.61L240.64 6.345L244.32 9.935L243.45 15L248 12.61L252.55 15L251.68 9.935L255.36 6.35L250.275 5.61L248 1Z" fill="white"/>
<path d="M269.338 2.00001H258.662C258.296 2.00001 258 2.29644 258 2.66211V13.3379C258 13.7036 258.296 14 258.662 14H269.338C269.704 14 270 13.7036 270 13.3379V2.66211C270 2.29644 269.704 2.00001 269.338 2.00001Z" fill="#3D5A98"/>
<path d="M266.279 13.999V9.3521H267.838L268.071 7.5412H266.279V6.3853C266.279 5.8611 266.425 5.50317 267.176 5.50317H268.135V3.88087C267.671 3.83255 267.204 3.80953 266.737 3.81192C265.356 3.81192 264.405 4.65349 264.405 6.20584V7.5412H262.846V9.3521H264.405V13.999H266.279Z" fill="white"/>
<path d="M285.335 2H274.665C274.489 2.00131 274.321 2.07179 274.196 2.19622C274.072 2.32065 274.001 2.48904 274 2.665V13.335C274.001 13.511 274.072 13.6794 274.196 13.8038C274.321 13.9282 274.489 13.9987 274.665 14H280.41V9.36H278.85V7.545H280.41V6.21C280.41 4.66 281.355 3.815 282.745 3.815C283.21 3.815 283.675 3.815 284.14 3.885V5.5H283.185C282.43 5.5 282.285 5.86 282.285 6.385V7.54H284.085L283.85 9.355H282.285V14H285.335C285.511 13.9987 285.679 13.9282 285.804 13.8038C285.928 13.6794 285.999 13.511 286 13.335V2.665C285.999 2.48904 285.928 2.32065 285.804 2.19622C285.679 2.07179 285.511 2.00131 285.335 2Z" fill="#141414"/>
<path d="M302.705 4.52999C302.626 4.23401 302.47 3.96415 302.253 3.74741C302.036 3.53067 301.766 3.37466 301.47 3.29499C300.38 2.99999 296 2.99999 296 2.99999C296 2.99999 291.62 2.99999 290.53 3.29499C290.234 3.37466 289.965 3.53067 289.748 3.74741C289.531 3.96415 289.375 4.23401 289.295 4.52999C289.092 5.64158 288.993 6.76989 289 7.89999C288.993 9.0301 289.092 10.1584 289.295 11.27C289.375 11.566 289.531 11.8358 289.748 12.0526C289.965 12.2693 290.234 12.4253 290.53 12.505C291.62 12.8 296 12.8 296 12.8C296 12.8 300.38 12.8 301.47 12.505C301.766 12.4253 302.036 12.2693 302.253 12.0526C302.47 11.8358 302.626 11.566 302.705 11.27C302.909 10.1584 303.008 9.0301 303 7.89999C303.008 6.76989 302.909 5.64158 302.705 4.52999ZM294.6 9.99999V5.79999L298.235 7.89999L294.6 9.99999Z" fill="#141414"/>
<path d="M306.256 7.94785C306.256 8.95943 306.521 9.94716 307.026 10.8178L306.208 13.7923L309.266 12.9942C310.111 13.4525 311.059 13.6927 312.022 13.6928H312.024C315.203 13.6928 317.791 11.1176 317.792 7.95238C317.793 6.41861 317.193 4.97635 316.104 3.89128C315.015 2.80629 313.567 2.20846 312.024 2.20776C308.845 2.20776 306.257 4.78278 306.256 7.94785Z" fill="url(#paint0_linear_250_1297)"/>
<path d="M306.05 7.94598C306.05 8.99396 306.325 10.017 306.848 10.9188L306 14L309.167 13.1732C310.04 13.6469 311.023 13.8967 312.023 13.8971H312.025C315.318 13.8971 317.999 11.2293 318 7.95074C318.001 6.36186 317.38 4.86776 316.252 3.74381C315.123 2.62 313.623 2.00065 312.025 2C308.732 2 306.051 4.66742 306.05 7.94598ZM307.936 10.7635L307.818 10.5766C307.321 9.78961 307.059 8.88019 307.059 7.94636C307.06 5.2213 309.288 3.00425 312.027 3.00425C313.354 3.00481 314.6 3.51963 315.538 4.45369C316.476 5.38785 316.992 6.62963 316.991 7.95037C316.99 10.6754 314.762 12.8928 312.025 12.8928H312.023C311.132 12.8923 310.258 12.654 309.496 12.2037L309.314 12.0966L307.435 12.5872L307.936 10.7635Z" fill="url(#paint1_linear_250_1297)"/>
<path d="M310.532 5.46018C310.42 5.21271 310.302 5.20772 310.196 5.20338C310.109 5.19965 310.009 5.19993 309.91 5.19993C309.81 5.19993 309.648 5.23721 309.512 5.38585C309.375 5.53462 308.989 5.89413 308.989 6.62534C308.989 7.35655 309.524 8.06326 309.599 8.16251C309.673 8.26159 310.631 9.81015 312.149 10.4059C313.41 10.901 313.667 10.8025 313.94 10.7777C314.214 10.7529 314.824 10.4183 314.948 10.0712C315.073 9.72419 315.073 9.42674 315.035 9.36458C314.998 9.30266 314.898 9.26546 314.749 9.19117C314.6 9.11688 313.866 8.75727 313.729 8.70767C313.592 8.65811 313.493 8.63337 313.393 8.78219C313.293 8.93078 313.007 9.26546 312.92 9.36458C312.833 9.46393 312.746 9.4763 312.597 9.40196C312.448 9.32739 311.967 9.17064 311.396 8.66436C310.952 8.27041 310.653 7.78391 310.566 7.6351C310.479 7.48651 310.556 7.40597 310.631 7.33191C310.698 7.26532 310.781 7.15836 310.855 7.0716C310.93 6.98481 310.955 6.92288 311.004 6.82376C311.054 6.72455 311.029 6.63775 310.992 6.56341C310.955 6.48907 310.665 5.75404 310.532 5.46018Z" fill="white"/>
<path d="M334.691 4.53462C334.611 4.23801 334.454 3.96759 334.237 3.7503C334.019 3.53301 333.749 3.37643 333.452 3.29616C332.366 3 327.993 3 327.993 3C327.993 3 323.62 3.00896 322.534 3.30512C322.237 3.3854 321.966 3.54199 321.749 3.75929C321.532 3.97659 321.375 4.24701 321.295 4.54364C320.966 6.47309 320.839 9.41311 321.304 11.2654C321.384 11.562 321.541 11.8324 321.758 12.0497C321.976 12.267 322.246 12.4236 322.543 12.5038C323.629 12.8 328.002 12.8 328.002 12.8C328.002 12.8 332.375 12.8 333.461 12.5038C333.758 12.4236 334.028 12.267 334.246 12.0497C334.463 11.8324 334.62 11.562 334.7 11.2654C335.047 9.3332 335.153 6.39498 334.691 4.53462Z" fill="#FF0000"/>
<path d="M326.601 9.99996L330.229 7.89997L326.601 5.79998V9.99996Z" fill="white"/>
<path d="M361.695 8.60466C361.763 8.60466 362.017 8.71835 362.457 8.94574C362.897 9.17313 363.13 9.31008 363.156 9.35659C363.167 9.38243 363.172 9.42119 363.172 9.47287C363.172 9.64342 363.128 9.8398 363.039 10.062C362.956 10.2636 362.771 10.4328 362.484 10.5698C362.198 10.7067 361.932 10.7752 361.688 10.7752C361.391 10.7752 360.896 10.615 360.203 10.2946C359.693 10.062 359.25 9.75711 358.875 9.37985C358.5 9.00259 358.115 8.52455 357.719 7.94574C357.344 7.39277 357.159 6.89148 357.164 6.44187V6.37985C357.18 5.90957 357.372 5.5013 357.742 5.15504C357.867 5.04135 358.003 4.9845 358.148 4.9845C358.18 4.9845 358.227 4.98838 358.289 4.99613C358.352 5.00388 358.401 5.00776 358.438 5.00776C358.536 5.00776 358.605 5.02455 358.645 5.05815C358.684 5.09174 358.724 5.1628 358.766 5.27132C358.807 5.37468 358.893 5.60207 359.023 5.95349C359.154 6.30492 359.219 6.49871 359.219 6.53489C359.219 6.64342 359.129 6.792 358.949 6.98063C358.77 7.16926 358.68 7.28941 358.68 7.34109C358.68 7.37727 358.693 7.41603 358.719 7.45737C358.896 7.83463 359.161 8.18864 359.516 8.51939C359.807 8.79329 360.201 9.05427 360.695 9.30233C360.758 9.33851 360.815 9.35659 360.867 9.35659C360.945 9.35659 361.086 9.23127 361.289 8.98063C361.492 8.72998 361.628 8.60466 361.695 8.60466ZM360.109 12.7132C360.771 12.7132 361.405 12.584 362.012 12.3256C362.618 12.0672 363.141 11.7209 363.578 11.2868C364.016 10.8527 364.365 10.3346 364.625 9.73256C364.885 9.1305 365.016 8.5013 365.016 7.84497C365.016 7.18864 364.885 6.55944 364.625 5.95737C364.365 5.3553 364.016 4.83721 363.578 4.40311C363.141 3.969 362.618 3.62274 362.012 3.36435C361.405 3.10595 360.771 2.97675 360.109 2.97675C359.448 2.97675 358.814 3.10595 358.207 3.36435C357.6 3.62274 357.078 3.969 356.641 4.40311C356.203 4.83721 355.854 5.3553 355.594 5.95737C355.333 6.55944 355.203 7.18864 355.203 7.84497C355.203 8.89406 355.516 9.84497 356.141 10.6977L355.523 12.5039L357.414 11.907C358.237 12.4445 359.135 12.7132 360.109 12.7132ZM360.109 2.00001C360.906 2.00001 361.668 2.15504 362.395 2.46512C363.121 2.7752 363.747 3.19122 364.273 3.71318C364.799 4.23515 365.219 4.85659 365.531 5.57752C365.844 6.29845 366 7.05427 366 7.84497C366 8.63566 365.844 9.39148 365.531 10.1124C365.219 10.8333 364.799 11.4548 364.273 11.9767C363.747 12.4987 363.121 12.9147 362.395 13.2248C361.668 13.5349 360.906 13.6899 360.109 13.6899C359.094 13.6899 358.143 13.447 357.258 12.9612L354 14L355.062 10.8605C354.5 9.94057 354.219 8.93541 354.219 7.84497C354.219 7.05427 354.375 6.29845 354.688 5.57752C355 4.85659 355.419 4.23515 355.945 3.71318C356.471 3.19122 357.098 2.7752 357.824 2.46512C358.551 2.15504 359.312 2.00001 360.109 2.00001Z" fill="#141414"/>
<path d="M376.5 7.5V2.5H375.5V7.5H370.5V8.5H375.5V13.5H376.5V8.5H381.5V7.5H376.5Z" fill="white"/>
<path d="M392 7.29289L388.464 3.75736L387.757 4.46447L391.293 8L387.757 11.5355L388.464 12.2426L392 8.70711L395.536 12.2426L396.243 11.5355L392.707 8L396.243 4.46447L395.536 3.75736L392 7.29289Z" fill="white"/>
<defs>
<linearGradient id="paint0_linear_250_1297" x1="906" y1="1202" x2="906" y2="2" gradientUnits="userSpaceOnUse">
<stop stop-color="#1FAF38"/>
<stop offset="1" stop-color="#60D669"/>
</linearGradient>
<linearGradient id="paint1_linear_250_1297" x1="906" y1="1202" x2="906" y2="2" gradientUnits="userSpaceOnUse">
<stop stop-color="#F9F9F9"/>
<stop offset="1" stop-color="white"/>
</linearGradient>
<clipPath id="clip0_250_1297">
<rect width="16" height="16" fill="white" transform="translate(128)"/>
</clipPath>
</defs>
</svg>
