<svg width="600" height="500" viewBox="0 0 600 500" fill="none" xmlns="http://www.w3.org/2000/svg">
<path d="M53.125 68.75V43.75H40.625V50H46.875V68.75H37.5V75H62.5V68.75H53.125ZM50 25C49.0729 25 48.1666 25.2749 47.3958 25.79C46.6249 26.3051 46.0241 27.0371 45.6693 27.8937C45.3145 28.7502 45.2217 29.6927 45.4026 30.602C45.5834 31.5113 46.0299 32.3465 46.6854 33.0021C47.341 33.6576 48.1762 34.1041 49.0855 34.2849C49.9948 34.4658 50.9373 34.373 51.7938 34.0182C52.6504 33.6634 53.3824 33.0626 53.8975 32.2917C54.4126 31.5209 54.6875 30.6146 54.6875 29.6875C54.6875 28.4443 54.1936 27.252 53.3146 26.3729C52.4355 25.4939 51.2432 25 50 25Z" fill="white"/>
<path d="M50 93.75C41.3471 93.75 32.8885 91.1841 25.6938 86.3768C18.4992 81.5695 12.8916 74.7367 9.58027 66.7424C6.26894 58.7481 5.40254 49.9515 7.09064 41.4648C8.77875 32.9781 12.9455 25.1826 19.0641 19.0641C25.1826 12.9455 32.9781 8.77875 41.4648 7.09064C49.9515 5.40254 58.7481 6.26894 66.7424 9.58027C74.7367 12.8916 81.5695 18.4992 86.3768 25.6938C91.1841 32.8885 93.75 41.3471 93.75 50C93.75 61.6032 89.1406 72.7312 80.9359 80.9359C72.7312 89.1406 61.6032 93.75 50 93.75ZM50 12.5C42.5832 12.5 35.333 14.6993 29.1661 18.8199C22.9993 22.9404 18.1928 28.7971 15.3545 35.6494C12.5162 42.5016 11.7736 50.0416 13.2206 57.3159C14.6675 64.5902 18.239 71.272 23.4835 76.5165C28.728 81.761 35.4098 85.3325 42.6841 86.7794C49.9584 88.2264 57.4984 87.4838 64.3506 84.6455C71.2029 81.8072 77.0596 77.0007 81.1801 70.8339C85.3007 64.667 87.5 57.4168 87.5 50C87.5 40.0544 83.5491 30.5161 76.5165 23.4835C69.4839 16.4509 59.9456 12.5 50 12.5Z" fill="white"/>
<path d="M168.75 50L137.5 81.25L133.125 76.875L160 50L133.125 23.125L137.5 18.75L168.75 50Z" fill="white"/>
<path d="M231.25 50L262.5 18.75L266.875 23.125L240 50L266.875 76.875L262.5 81.25L231.25 50Z" fill="white"/>
<path d="M303.5 52.2L300 48.7L300.7 48L303.5 50.8L306.3 48L307 48.7L303.5 52.2Z" fill="white"/>
<path d="M450 6.25C441.347 6.25 432.888 8.81589 425.694 13.6232C418.499 18.4305 412.892 25.2633 409.58 33.2576C406.269 41.2519 405.403 50.0485 407.091 58.5352C408.779 67.0219 412.946 74.8174 419.064 80.9359C425.183 87.0545 432.978 91.2213 441.465 92.9094C449.951 94.5975 458.748 93.7311 466.742 90.4197C474.737 87.1084 481.569 81.5008 486.377 74.3062C491.184 67.1115 493.75 58.6529 493.75 50C493.75 38.3968 489.141 27.2688 480.936 19.0641C472.731 10.8594 461.603 6.25 450 6.25ZM450 87.5C442.583 87.5 435.333 85.3007 429.166 81.1801C422.999 77.0596 418.193 71.2029 415.355 64.3506C412.516 57.4984 411.774 49.9584 413.221 42.6841C414.667 35.4098 418.239 28.728 423.483 23.4835C428.728 18.239 435.41 14.6675 442.684 13.2206C449.958 11.7736 457.498 12.5162 464.351 15.3545C471.203 18.1928 477.06 22.9993 481.18 29.1661C485.301 35.333 487.5 42.5832 487.5 50C487.5 59.9456 483.549 69.4839 476.516 76.5165C469.484 83.5491 459.946 87.5 450 87.5Z" fill="white"/>
<path d="M550 68.75L518.75 37.5L523.125 33.125L550 60L576.875 33.125L581.25 37.5L550 68.75Z" fill="white"/>
<path d="M50 106.25C41.3471 106.25 32.8885 108.816 25.6938 113.623C18.4992 118.431 12.8916 125.263 9.58027 133.258C6.26894 141.252 5.40254 150.049 7.09064 158.535C8.77875 167.022 12.9455 174.817 19.0641 180.936C25.1826 187.054 32.9781 191.221 41.4648 192.909C49.9515 194.597 58.7481 193.731 66.7424 190.42C74.7367 187.108 81.5695 181.501 86.3768 174.306C91.1841 167.112 93.75 158.653 93.75 150C93.75 138.397 89.1406 127.269 80.9359 119.064C72.7312 110.859 61.6032 106.25 50 106.25Z" fill="white"/>
<path d="M190.625 186.206L167.025 162.606C172.696 155.798 175.524 147.065 174.921 138.225C174.317 129.384 170.329 121.117 163.785 115.142C157.241 109.168 148.646 105.946 139.787 106.147C130.929 106.348 122.489 109.957 116.223 116.223C109.957 122.489 106.348 130.929 106.147 139.787C105.946 148.646 109.168 157.241 115.142 163.785C121.117 170.329 129.384 174.317 138.225 174.921C147.065 175.524 155.798 172.696 162.606 167.025L186.206 190.625L190.625 186.206ZM112.5 140.625C112.5 135.062 114.15 129.625 117.24 125C120.33 120.374 124.723 116.77 129.862 114.641C135.001 112.512 140.656 111.955 146.112 113.04C151.568 114.126 156.579 116.804 160.512 120.738C164.446 124.671 167.124 129.682 168.21 135.138C169.295 140.594 168.738 146.249 166.609 151.388C164.48 156.527 160.876 160.92 156.25 164.01C151.625 167.101 146.188 168.75 140.625 168.75C133.168 168.742 126.019 165.776 120.747 160.503C115.474 155.231 112.508 148.082 112.5 140.625Z" fill="white"/>
<g clip-path="url(#clip0_232_1244)">
<path fill-rule="evenodd" clip-rule="evenodd" d="M235.86 156.67L250.01 166.345L263.65 156.935L294.225 187.1C293.418 187.363 292.565 187.497 291.665 187.5H208.335C207.235 187.5 206.185 187.285 205.22 186.9L235.86 156.67ZM300 131.88V179.165C300 180.4 299.73 181.57 299.25 182.625L269.28 153.055L300 131.88ZM200 132.145L230.21 152.805L200.53 182.095C200.182 181.157 200.003 180.165 200 179.165V132.145ZM291.665 112.5C296.265 112.5 300 116.23 300 120.835V123.765L249.99 158.24L200 124.05V120.835C200 116.235 203.73 112.5 208.335 112.5H291.665Z" fill="white"/>
</g>
<path d="M350 106.25C341.347 106.25 332.888 108.816 325.694 113.623C318.499 118.431 312.892 125.263 309.58 133.258C306.269 141.252 305.403 150.049 307.091 158.535C308.779 167.022 312.946 174.817 319.064 180.936C325.183 187.054 332.978 191.221 341.465 192.909C349.951 194.597 358.748 193.731 366.742 190.42C374.737 187.108 381.569 181.501 386.377 174.306C391.184 167.112 393.75 158.653 393.75 150C393.75 138.397 389.141 127.269 380.936 119.064C372.731 110.859 361.603 106.25 350 106.25ZM350 125C350.927 125 351.833 125.275 352.604 125.79C353.375 126.305 353.976 127.037 354.331 127.894C354.685 128.75 354.778 129.693 354.597 130.602C354.417 131.511 353.97 132.347 353.315 133.002C352.659 133.658 351.824 134.104 350.914 134.285C350.005 134.466 349.063 134.373 348.206 134.018C347.35 133.663 346.618 133.063 346.102 132.292C345.587 131.521 345.312 130.615 345.312 129.688C345.312 128.444 345.806 127.252 346.685 126.373C347.565 125.494 348.757 125 350 125ZM362.5 175.391H337.5V168.359H346.484V150.391H340.625V143.359H353.516V168.359H362.5V175.391Z" fill="white"/>
<path fill-rule="evenodd" clip-rule="evenodd" d="M491.665 112.5C496.265 112.5 500 116.23 500 120.835V179.165C500 183.765 496.27 187.5 491.665 187.5H408.335C403.735 187.5 400 183.77 400 179.165V120.835C400 116.235 403.73 112.5 408.335 112.5H491.665ZM435.84 156.64L411.29 180.9H487.915L463.63 156.89L450 166.325L435.84 156.64ZM493.2 136.46L469.22 153.04L493.2 176.72V136.46ZM406.805 136.765V175.945L430.235 152.79L406.805 136.765ZM491.585 119.105H408.49C408.034 119.085 407.587 119.238 407.24 119.535C407.086 119.673 406.967 119.846 406.893 120.039C406.819 120.232 406.792 120.44 406.815 120.645V128.745L450 158.28L493.22 128.455V120.995C493.223 120.328 493.07 119.842 492.76 119.535C492.607 119.384 492.424 119.267 492.222 119.193C492.02 119.119 491.804 119.089 491.59 119.105" fill="white"/>
<path d="M581.25 190.625H580.719C519.313 187.094 510.594 135.281 509.375 119.469C509.277 118.239 509.422 117.003 509.803 115.829C510.183 114.656 510.792 113.57 511.593 112.632C512.394 111.694 513.372 110.924 514.472 110.365C515.571 109.806 516.77 109.47 518 109.375H535.219C536.471 109.374 537.694 109.748 538.73 110.451C539.766 111.153 540.568 112.15 541.031 113.313L545.781 125C546.239 126.136 546.352 127.381 546.108 128.582C545.863 129.782 545.272 130.883 544.406 131.75L537.75 138.469C538.79 144.377 541.619 149.824 545.856 154.072C550.093 158.32 555.532 161.163 561.438 162.219L568.219 155.5C569.098 154.644 570.211 154.066 571.417 153.839C572.622 153.611 573.869 153.743 575 154.219L586.781 158.938C587.927 159.415 588.904 160.223 589.588 161.258C590.273 162.293 590.634 163.509 590.625 164.75V181.25C590.625 183.736 589.637 186.121 587.879 187.879C586.121 189.637 583.736 190.625 581.25 190.625ZM518.75 115.625C517.921 115.625 517.126 115.954 516.54 116.54C515.954 117.126 515.625 117.921 515.625 118.75V119C517.063 137.5 526.281 181.25 581.063 184.375C581.473 184.4 581.885 184.344 582.273 184.21C582.662 184.076 583.021 183.867 583.329 183.594C583.636 183.321 583.887 182.99 584.067 182.62C584.246 182.25 584.351 181.848 584.375 181.438V164.75L572.594 160.031L563.625 168.938L562.125 168.75C534.938 165.344 531.25 138.156 531.25 137.875L531.063 136.375L539.938 127.406L535.25 115.625H518.75Z" fill="white"/>
<path d="M63.5312 267.125L70.5312 260.125C71.4741 259.194 72.6669 258.557 73.965 258.29C75.263 258.024 76.6105 258.14 77.8438 258.625L86.375 262.031C87.6213 262.537 88.6899 263.401 89.4462 264.513C90.2025 265.625 90.6127 266.936 90.625 268.281V283.906C90.6177 284.821 90.4254 285.725 90.0596 286.564C89.6937 287.402 89.162 288.158 88.4963 288.786C87.8306 289.414 87.0448 289.9 86.1862 290.216C85.3275 290.532 84.4138 290.671 83.5 290.625C23.7187 286.906 11.6562 236.281 9.375 216.906C9.2691 215.955 9.36586 214.992 9.6589 214.08C9.95194 213.169 10.4346 212.33 11.0752 211.619C11.7158 210.907 12.4997 210.339 13.3755 209.953C14.2512 209.566 15.1989 209.369 16.1563 209.375H31.25C32.5969 209.379 33.9118 209.786 35.0256 210.543C36.1394 211.301 37.0011 212.374 37.5 213.625L40.9062 222.156C41.407 223.385 41.5348 224.733 41.2736 226.034C41.0124 227.334 40.3738 228.529 39.4375 229.469L32.4375 236.469C32.4375 236.469 36.4687 263.75 63.5312 267.125Z" fill="white"/>
<path d="M135.781 235.062L104 239.688L127 262.094L121.562 293.75L150 278.812V206.25L135.781 235.062Z" fill="white"/>
<path d="M250 206.25L235.781 235.062L204 239.656L227 262.094L221.562 293.75L250 278.812L278.438 293.75L273 262.094L296 239.688L264.219 235.062L250 206.25Z" fill="white"/>
<path d="M350 220.375L358.625 237.813L360.062 240.938L363.187 241.406L382.437 244.188L368.75 257.625L366.406 259.906L366.969 263.031L370.25 282.188L353.031 273.156L350 271.875L347.094 273.406L329.875 282.312L333 263.156L333.562 260.031L331.25 257.625L317.438 244.031L336.688 241.25L339.812 240.781L341.25 237.656L350 220.375ZM350 206.25L335.781 235.062L304 239.656L327 262.094L321.562 293.75L350 278.812L378.438 293.75L373 262.094L396 239.688L364.219 235.062L350 206.25Z" fill="white"/>
<path d="M483.362 212.5H416.638C414.353 212.5 412.5 214.353 412.5 216.638V283.362C412.5 285.647 414.353 287.5 416.638 287.5H483.362C485.647 287.5 487.5 285.647 487.5 283.362V216.638C487.5 214.353 485.647 212.5 483.362 212.5Z" fill="#3D5A98"/>
<path d="M464.243 287.494V258.451H473.989L475.447 247.132H464.243V239.908C464.243 236.632 465.155 234.395 469.851 234.395H475.846V224.255C472.943 223.953 470.026 223.81 467.107 223.824C458.476 223.824 452.532 229.084 452.532 238.786V247.132H442.785V258.451H452.532V287.494H464.243Z" fill="white"/>
<path d="M583.344 212.5H516.656C515.556 212.508 514.504 212.949 513.726 213.726C512.949 214.504 512.508 215.556 512.5 216.656V283.344C512.508 284.444 512.949 285.496 513.726 286.274C514.504 287.051 515.556 287.492 516.656 287.5H552.562V258.5H542.812V247.156H552.562V238.812C552.562 229.125 558.469 223.844 567.156 223.844C570.062 223.844 572.969 223.844 575.875 224.281V234.375H569.906C565.188 234.375 564.281 236.625 564.281 239.906V247.125H575.531L574.063 258.469H564.281V287.5H583.344C584.444 287.492 585.496 287.051 586.274 286.274C587.051 285.496 587.492 284.444 587.5 283.344V216.656C587.492 215.556 587.051 214.504 586.274 213.726C585.496 212.949 584.444 212.508 583.344 212.5Z" fill="#141414"/>
<path d="M91.9089 328.312C91.411 326.463 90.4359 324.776 89.0813 323.421C87.7267 322.067 86.04 321.092 84.1902 320.594C77.3777 318.75 50.0027 318.75 50.0027 318.75C50.0027 318.75 22.6277 318.75 15.8152 320.594C13.9653 321.092 12.2786 322.067 10.924 323.421C9.56941 324.776 8.59435 326.463 8.09642 328.312C6.822 335.26 6.20469 342.312 6.25267 349.375C6.20469 356.438 6.822 363.49 8.09642 370.437C8.59435 372.287 9.56941 373.974 10.924 375.329C12.2786 376.683 13.9653 377.658 15.8152 378.156C22.6277 380 50.0027 380 50.0027 380C50.0027 380 77.3777 380 84.1902 378.156C86.04 377.658 87.7267 376.683 89.0813 375.329C90.4359 373.974 91.411 372.287 91.9089 370.437C93.1833 363.49 93.8006 356.438 93.7527 349.375C93.8006 342.312 93.1833 335.26 91.9089 328.312ZM41.2527 362.5V336.25L63.9714 349.375L41.2527 362.5Z" fill="#141414"/>
<path d="M114.1 349.674C114.099 355.996 115.758 362.17 118.913 367.611L113.799 386.202L132.91 381.214C138.196 384.078 144.118 385.579 150.136 385.58H150.152C170.02 385.58 186.192 369.485 186.201 349.702C186.205 340.116 182.458 331.102 175.651 324.32C168.846 317.539 159.795 313.803 150.151 313.798C130.281 313.798 114.109 329.892 114.1 349.674Z" fill="url(#paint0_linear_232_1244)"/>
<path d="M112.813 349.662C112.811 356.212 114.53 362.606 117.798 368.242L112.5 387.5L132.296 382.333C137.751 385.293 143.892 386.854 150.141 386.857H150.157C170.737 386.857 187.491 370.183 187.5 349.692C187.504 339.762 183.622 330.424 176.572 323.399C169.521 316.375 160.146 312.504 150.157 312.5C129.573 312.5 112.822 329.171 112.813 349.662ZM124.603 367.272L123.864 366.104C120.756 361.185 119.116 355.501 119.119 349.665C119.125 332.633 133.048 318.777 150.169 318.777C158.46 318.78 166.252 321.998 172.112 327.836C177.972 333.674 181.197 341.435 181.195 349.69C181.187 366.721 167.264 380.58 150.157 380.58H150.145C144.575 380.577 139.112 379.088 134.347 376.273L133.213 375.604L121.466 378.67L124.603 367.272Z" fill="url(#paint1_linear_232_1244)"/>
<path d="M140.824 334.126C140.125 332.579 139.389 332.548 138.724 332.521C138.18 332.498 137.558 332.5 136.936 332.5C136.314 332.5 135.303 332.733 134.448 333.662C133.593 334.591 131.182 336.838 131.182 341.408C131.182 345.978 134.526 350.395 134.992 351.016C135.458 351.635 141.447 361.313 150.931 365.037C158.813 368.131 160.417 367.516 162.127 367.36C163.838 367.206 167.648 365.114 168.425 362.945C169.203 360.776 169.203 358.917 168.97 358.529C168.737 358.142 168.115 357.909 167.181 357.445C166.248 356.98 161.661 354.733 160.806 354.423C159.95 354.113 159.328 353.959 158.706 354.889C158.084 355.817 156.297 357.909 155.752 358.529C155.208 359.15 154.663 359.227 153.731 358.762C152.797 358.296 149.792 357.316 146.227 354.152C143.453 351.69 141.58 348.649 141.036 347.719C140.492 346.791 140.978 346.287 141.446 345.824C141.865 345.408 142.379 344.74 142.846 344.198C143.311 343.655 143.467 343.268 143.778 342.649C144.089 342.028 143.933 341.486 143.7 341.021C143.467 340.557 141.653 335.963 140.824 334.126Z" fill="white"/>
<path d="M291.819 328.341C291.317 326.488 290.338 324.797 288.979 323.439C287.621 322.081 285.93 321.103 284.075 320.601C277.285 318.75 249.956 318.75 249.956 318.75C249.956 318.75 222.627 318.806 215.836 320.657C213.981 321.159 212.291 322.137 210.932 323.496C209.573 324.854 208.594 326.544 208.092 328.398C206.038 340.457 205.242 358.832 208.149 370.409C208.651 372.262 209.63 373.953 210.988 375.311C212.347 376.669 214.038 377.647 215.893 378.149C222.683 380 250.012 380 250.012 380C250.012 380 277.341 380 284.131 378.149C285.986 377.647 287.677 376.669 289.035 375.311C290.394 373.953 291.373 372.263 291.875 370.409C294.041 358.332 294.709 339.969 291.819 328.341Z" fill="#FF0000"/>
<path d="M241.258 362.5L263.929 349.375L241.258 336.25V362.5Z" fill="white"/>
<path d="M460.596 353.779C461.019 353.779 462.606 354.49 465.356 355.911C468.107 357.332 469.564 358.188 469.727 358.479C469.792 358.64 469.824 358.882 469.824 359.205C469.824 360.271 469.548 361.499 468.994 362.888C468.473 364.147 467.318 365.205 465.527 366.061C463.737 366.917 462.077 367.345 460.547 367.345C458.691 367.345 455.599 366.344 451.27 364.341C448.079 362.888 445.312 360.982 442.969 358.624C440.625 356.266 438.216 353.278 435.742 349.661C433.398 346.205 432.243 343.072 432.275 340.262V339.874C432.373 336.935 433.577 334.383 435.889 332.219C436.67 331.508 437.516 331.153 438.428 331.153C438.623 331.153 438.916 331.177 439.307 331.226C439.697 331.274 440.007 331.298 440.234 331.298C440.853 331.298 441.284 331.403 441.528 331.613C441.772 331.823 442.025 332.267 442.285 332.946C442.546 333.592 443.083 335.013 443.896 337.209C444.71 339.406 445.117 340.617 445.117 340.843C445.117 341.521 444.556 342.45 443.433 343.629C442.31 344.808 441.748 345.559 441.748 345.882C441.748 346.108 441.829 346.35 441.992 346.609C443.099 348.966 444.759 351.179 446.973 353.246C448.796 354.958 451.253 356.589 454.346 358.14C454.736 358.366 455.094 358.479 455.42 358.479C455.908 358.479 456.787 357.695 458.057 356.129C459.326 354.562 460.173 353.779 460.596 353.779ZM450.684 379.457C454.818 379.457 458.781 378.65 462.573 377.035C466.366 375.42 469.629 373.256 472.363 370.543C475.098 367.829 477.279 364.591 478.906 360.829C480.534 357.066 481.348 353.133 481.348 349.031C481.348 344.929 480.534 340.996 478.906 337.234C477.279 333.471 475.098 330.233 472.363 327.519C469.629 324.806 466.366 322.642 462.573 321.027C458.781 319.412 454.818 318.605 450.684 318.605C446.549 318.605 442.586 319.412 438.794 321.027C435.002 322.642 431.738 324.806 429.004 327.519C426.27 330.233 424.089 333.471 422.461 337.234C420.833 340.996 420.02 344.929 420.02 349.031C420.02 355.588 421.973 361.531 425.879 366.86L422.021 378.149L433.838 374.419C438.981 377.778 444.596 379.457 450.684 379.457ZM450.684 312.5C455.664 312.5 460.425 313.469 464.966 315.407C469.507 317.345 473.421 319.945 476.709 323.207C479.997 326.47 482.617 330.354 484.57 334.86C486.523 339.365 487.5 344.089 487.5 349.031C487.5 353.973 486.523 358.697 484.57 363.203C482.617 367.708 479.997 371.592 476.709 374.855C473.421 378.117 469.507 380.717 464.966 382.655C460.425 384.593 455.664 385.562 450.684 385.562C444.336 385.562 438.395 384.044 432.861 381.008L412.5 387.5L419.141 367.878C415.625 362.129 413.867 355.846 413.867 349.031C413.867 344.089 414.844 339.365 416.797 334.86C418.75 330.354 421.37 326.47 424.658 323.207C427.946 319.945 431.86 317.345 436.401 315.407C440.942 313.469 445.703 312.5 450.684 312.5Z" fill="#141414"/>
<path d="M533.333 306L566.667 354.153L533.333 396" stroke="white" stroke-linecap="round"/>
<path d="M53.125 446.875V415.625H46.875V446.875H15.625V453.125H46.875V484.375H53.125V453.125H84.375V446.875H53.125Z" fill="white"/>
<path d="M150 445.581L127.903 423.483L123.483 427.903L145.581 450L123.483 472.097L127.903 476.517L150 454.419L172.097 476.517L176.517 472.097L154.419 450L176.517 427.903L172.097 423.483L150 445.581Z" fill="white"/>
<defs>
<linearGradient id="paint0_linear_232_1244" x1="3862.5" y1="7812.5" x2="3862.5" y2="312.5" gradientUnits="userSpaceOnUse">
<stop stop-color="#1FAF38"/>
<stop offset="1" stop-color="#60D669"/>
</linearGradient>
<linearGradient id="paint1_linear_232_1244" x1="3862.5" y1="7812.5" x2="3862.5" y2="312.5" gradientUnits="userSpaceOnUse">
<stop stop-color="#F9F9F9"/>
<stop offset="1" stop-color="white"/>
</linearGradient>
<clipPath id="clip0_232_1244">
<rect width="100" height="100" fill="white" transform="translate(200 100)"/>
</clipPath>
</defs>
</svg>
