<?xml version="1.0" encoding="utf-8"?>
<svg
	xmlns="http://www.w3.org/2000/svg">
	<symbol id="carousel_arrow-left" viewBox="0 0 36 36">
		<path d="M13.656 18.25 19.835 6l2.26 1.906-5.01 10.344 5.01 10.535-2.26 1.715z"/>
	</symbol>
	<symbol id="carousel_arrow-right" viewBox="0 0 36 36">
		<path d="M22.3445 18.25L16.165 6L13.9056 7.90556L18.9145 18.25L13.9056 28.785L16.165 30.5L22.3445 18.25Z"/>
	</symbol>
	<symbol id="icon-chevron-down-short" viewBox="0 0 16 16">
		<path d="M3.5 10.2 0 6.7.7 6l2.8 2.8L6.3 6l.7.7z"/>
	</symbol>
	<symbol id="icon-chevron-down" viewBox="0 0 16 16">
		<path d="M8 11 3 6l.7-.7L8 9.6l4.3-4.3.7.7z"/>
	</symbol>
	<symbol id="icon-chevron-left" viewBox="0 0 16 16">
		<path d="m5 8 5-5 .7.7L6.4 8l4.3 4.3-.7.7z"/>
	</symbol>
	<symbol id="icon-chevron-right" viewBox="0 0 16 16">
		<path d="m11 8-5 5-.7-.7L9.6 8 5.3 3.7 6 3z"/>
	</symbol>
	<symbol id="icon-cross" viewBox="0 0 16 16">
		<path d="M8 7.293 4.464 3.757l-.707.707L7.293 8l-3.536 3.536.707.707L8 8.707l3.536 3.536.707-.707L8.707 8l3.536-3.536-.707-.707z"/>
	</symbol>
	<symbol id="icon-facebook-o" viewBox="0 0 16 16">
		<path d="M13.335 2H2.665A.67.67 0 0 0 2 2.665v10.67a.67.67 0 0 0 .665.665H8.41V9.36H6.85V7.545h1.56V6.21c0-1.55.945-2.395 2.335-2.395.465 0 .93 0 1.395.07V5.5h-.955c-.755 0-.9.36-.9.885V7.54h1.8l-.235 1.815h-1.565V14h3.05a.67.67 0 0 0 .665-.665V2.665A.67.67 0 0 0 13.335 2"/>
	</symbol>
	<symbol id="icon-facebook" viewBox="0 0 16 16">
		<path d="M13.338 2H2.662A.66.66 0 0 0 2 2.662v10.676c0 .366.296.662.662.662h10.676a.66.66 0 0 0 .662-.662V2.662A.66.66 0 0 0 13.338 2"/>
		<path d="M10.279 13.999V9.352h1.56l.232-1.81H10.28V6.384c0-.524.146-.882.897-.882h.96V3.881a13 13 0 0 0-1.399-.07c-1.38 0-2.332.842-2.332 2.395V7.54h-1.56v1.811h1.56V14z"/>
	</symbol>
	<symbol id="icon-information-filled" viewBox="0 0 16 16">
		<path d="M8 1a7 7 0 1 0 0 14A7 7 0 0 0 8 1m0 3a.75.75 0 1 1 0 1.5A.75.75 0 0 1 8 4m2 8.063H6v-1.126h1.438V8.063H6.5V6.937h2.063v4H10z"/>
	</symbol>
	<symbol id="icon-information-o" viewBox="0 0 16 16">
		<path d="M8.5 11V7h-2v1h1v3H6v1h4v-1zM8 4a.75.75 0 1 0 0 1.5A.75.75 0 0 0 8 4"/>
		<path d="M8 15A7 7 0 1 1 8 1a7 7 0 0 1 0 14M8 2a6 6 0 1 0 0 12A6 6 0 0 0 8 2"/>
	</symbol>
	<symbol id="icon-location-filled" viewBox="0 0 16 16">
    <path d="M8.39533 15.5053L8.388 15.5067L8.34067 15.53L8.32733 15.5327L8.318 15.53L8.27067 15.5067C8.26356 15.5044 8.25822 15.5056 8.25467 15.51L8.252 15.5167L8.24067 15.802L8.244 15.8153L8.25067 15.824L8.32 15.8733L8.33 15.876L8.338 15.8733L8.40733 15.824L8.41533 15.8133L8.418 15.802L8.40667 15.5173C8.40489 15.5102 8.40111 15.5062 8.39533 15.5053ZM8.572 15.43L8.56333 15.4313L8.44 15.4933L8.43333 15.5L8.43133 15.5073L8.44333 15.794L8.44667 15.802L8.452 15.8067L8.586 15.8687C8.59444 15.8709 8.60089 15.8691 8.60533 15.8633L8.608 15.854L8.58533 15.4447C8.58311 15.4367 8.57867 15.4318 8.572 15.43ZM8.09533 15.4313C8.0924 15.4295 8.08888 15.429 8.08553 15.4297C8.08218 15.4305 8.07924 15.4325 8.07733 15.4353L8.07333 15.4447L8.05067 15.854C8.05111 15.862 8.05489 15.8673 8.062 15.87L8.072 15.8687L8.206 15.8067L8.21267 15.8013L8.21533 15.794L8.22667 15.5073L8.22467 15.4993L8.218 15.4927L8.09533 15.4313Z" />
    <path d="M8 1.33333C9.5913 1.33333 11.1174 1.96547 12.2426 3.09069C13.3679 4.21591 14 5.74203 14 7.33333C14 9.38266 12.8827 11.06 11.7053 12.2633C11.1171 12.858 10.4753 13.3972 9.788 13.874L9.504 14.0673L9.37067 14.156L9.11933 14.316L8.89533 14.4527L8.618 14.614C8.42976 14.7214 8.21675 14.778 8 14.778C7.78325 14.778 7.57024 14.7214 7.382 14.614L7.10467 14.4527L6.758 14.2393L6.63 14.156L6.35667 13.974C5.61522 13.4723 4.9246 12.8994 4.29467 12.2633C3.11733 11.0593 2 9.38266 2 7.33333C2 5.74203 2.63214 4.21591 3.75736 3.09069C4.88258 1.96547 6.4087 1.33333 8 1.33333ZM8 5.33333C7.73736 5.33333 7.47728 5.38506 7.23463 5.48557C6.99198 5.58608 6.7715 5.7334 6.58579 5.91911C6.40007 6.10483 6.25275 6.32531 6.15224 6.56796C6.05173 6.81061 6 7.07068 6 7.33333C6 7.59597 6.05173 7.85604 6.15224 8.09869C6.25275 8.34135 6.40007 8.56182 6.58579 8.74754C6.7715 8.93326 6.99198 9.08058 7.23463 9.18109C7.47728 9.2816 7.73736 9.33333 8 9.33333C8.53043 9.33333 9.03914 9.12261 9.41421 8.74754C9.78929 8.37247 10 7.86376 10 7.33333C10 6.80289 9.78929 6.29419 9.41421 5.91911C9.03914 5.54404 8.53043 5.33333 8 5.33333Z" />
    </symbol>
	<symbol id="icon-mail-filled" viewBox="0 0 16 16">
		<g clip-path="url(#a)">
			<path fill-rule="evenodd" d="m5.738 9.067 2.264 1.548 2.182-1.505 4.892 4.826q-.195.063-.41.064H1.334q-.265-.002-.499-.096zM16 5.101v7.565c0 .198-.043.385-.12.554l-4.795-4.731zM0 5.143 4.834 8.45l-4.75 4.686A1.4 1.4 0 0 1 0 12.666zM14.666 2C15.402 2 16 2.597 16 3.334v.468L7.998 9.318 0 3.848v-.514C0 2.598.597 2 1.334 2z" clip-rule="evenodd"/>
		</g>
		<defs>
			<clipPath id="a">
				<path d="M0 0h16v16H0z"/>
			</clipPath>
		</defs>
	</symbol>
	<symbol id="icon-mail-o" viewBox="0 0 16 16">
		<path fill-rule="evenodd" d="M14.666 2C15.402 2 16 2.597 16 3.334v9.332c0 .736-.597 1.334-1.334 1.334H1.334A1.334 1.334 0 0 1 0 12.666V3.334C0 2.598.597 2 1.334 2zM5.734 9.062l-3.928 3.882h12.26l-3.885-3.842L8 10.612zm9.178-3.228-3.837 2.652 3.837 3.79zm-13.823.048v6.27l3.749-3.706zm13.565-2.825H1.358a.3.3 0 0 0-.2.069.21.21 0 0 0-.068.177V4.6L8 9.325l6.915-4.772V3.359q0-.16-.073-.233a.24.24 0 0 0-.188-.07" clip-rule="evenodd"/>
	</symbol>
	<symbol id="icon-phone-filled" viewBox="0 0 16 16">
		<path d="m10.165 10.74 1.12-1.12a1.1 1.1 0 0 1 1.17-.24l1.365.545a1.09 1.09 0 0 1 .68 1v2.5a1.084 1.084 0 0 1-1.14 1.075C3.795 13.905 1.865 5.805 1.5 2.705A1.085 1.085 0 0 1 2.585 1.5H5a1.08 1.08 0 0 1 1 .68l.545 1.365a1.08 1.08 0 0 1-.235 1.17l-1.12 1.12s.645 4.365 4.975 4.905"/>
	</symbol>
	<symbol id="icon-phone-o" viewBox="0 0 16 16">
		<path d="M13 14.5h-.085C3.09 13.935 1.695 5.645 1.5 3.115A1.5 1.5 0 0 1 2.88 1.5h2.755a1 1 0 0 1 .93.63L7.325 4a1 1 0 0 1-.22 1.08L6.04 6.155a4.685 4.685 0 0 0 3.79 3.8l1.085-1.075A1 1 0 0 1 12 8.675l1.885.755a1 1 0 0 1 .615.93V13a1.5 1.5 0 0 1-1.5 1.5M3 2.5a.5.5 0 0 0-.5.5v.04C2.73 6 4.205 13 12.97 13.5a.5.5 0 0 0 .53-.47v-2.67l-1.885-.755-1.435 1.425-.24-.03C5.59 10.455 5 6.105 5 6.06l-.03-.24 1.42-1.435L5.64 2.5z"/>
	</symbol>
	<symbol id="icon-plus" viewBox="0 0 16 16">
		<path d="M8.5 7.5v-5h-1v5h-5v1h5v5h1v-5h5v-1z"/>
	</symbol>
	<symbol id="icon-radio-button-checked" viewBox="0 0 16 16">
		<path d="M8 1a7 7 0 1 0 0 14A7 7 0 0 0 8 1"/>
	</symbol>
	<symbol id="icon-radio-button-empty" viewBox="0 0 16 16">
		<path d="M8 1a7 7 0 1 0 0 14A7 7 0 0 0 8 1m0 13A6 6 0 1 1 8 2a6 6 0 0 1 0 12"/>
	</symbol>
	<symbol id="icon-search" viewBox="0 0 23 23">
		<g filter="url(#a)">
			<path d="m18.5 13.793-3.776-3.776a5.509 5.509 0 1 0-.707.707l3.776 3.776zM6 6.5a4.5 4.5 0 1 1 9 0 4.5 4.5 0 0 1-9 0"/>
		</g>
		<defs>
			<filter id="a" width="24" height="24" x="0" y="0" color-interpolation-filters="sRGB" filterUnits="userSpaceOnUse">
				<feFlood flood-opacity="0" result="BackgroundImageFix"/>
				<feColorMatrix in="SourceAlpha" result="hardAlpha" values="0 0 0 0 0 0 0 0 0 0 0 0 0 0 0 0 0 0 127 0"/>
				<feOffset dy="4"/>
				<feGaussianBlur stdDeviation="2"/>
				<feComposite in2="hardAlpha" operator="out"/>
				<feColorMatrix values="0 0 0 0 0 0 0 0 0 0 0 0 0 0 0 0 0 0 0.25 0"/>
				<feBlend in2="BackgroundImageFix" result="effect1_dropShadow_250_1261"/>
				<feBlend in="SourceGraphic" in2="effect1_dropShadow_250_1261" result="shape"/>
			</filter>
		</defs>
	</symbol>
	<symbol id="icon-star-filled" viewBox="0 0 16 16">
		<path d="M8 1 5.725 5.61.64 6.345l3.68 3.59L3.45 15 8 12.61 12.55 15l-.87-5.065 3.68-3.585-5.085-.74z"/>
	</symbol>
	<symbol id="icon-star-half" viewBox="0 0 16 16">
		<path d="M5.725 5.61.64 6.35l3.68 3.585L3.45 15 8 12.61V1z"/>
	</symbol>
	<symbol id="icon-star-o" viewBox="0 0 16 16">
		<path d="m8 3.26 1.38 2.79.23.5.5.075 3.08.445L11 9.22l-.375.365.09.5.525 3.065-2.755-1.445L8 11.5l-.465.245L4.78 13.17l.5-3.065.09-.5L5 9.22 2.79 7.045 5.87 6.6l.5-.075.23-.5zM8 1 5.725 5.61.64 6.345l3.68 3.59L3.45 15 8 12.61 12.55 15l-.87-5.065 3.68-3.585-5.085-.74z"/>
	</symbol>
	<symbol id="icon-whatsapp-o" viewBox="0 0 16 16">
		<path d="M9.695 8.605q.102 0 .762.34.66.342.7.412.015.038.015.116 0 .255-.133.589-.124.302-.555.508a1.9 1.9 0 0 1-.796.205q-.445 0-1.485-.48a4.5 4.5 0 0 1-1.328-.915q-.562-.566-1.156-1.434-.562-.83-.555-1.504V6.38q.023-.705.578-1.225a.6.6 0 0 1 .406-.17q.048 0 .141.011.094.012.149.012.147 0 .207.05a.6.6 0 0 1 .12.213q.063.156.258.682.196.528.196.582 0 .162-.27.446-.27.282-.27.36a.2.2 0 0 0 .04.116q.265.567.797 1.062.437.411 1.18.783.094.055.171.055.117 0 .422-.376t.406-.376M8.11 12.713q.993 0 1.903-.387a5 5 0 0 0 1.566-1.04 4.9 4.9 0 0 0 1.047-1.553q.39-.904.39-1.888 0-.985-.39-1.888a4.9 4.9 0 0 0-1.047-1.554 5 5 0 0 0-1.566-1.039 4.8 4.8 0 0 0-1.903-.387q-.992 0-1.902.387a5 5 0 0 0-1.566 1.04 4.9 4.9 0 0 0-1.047 1.553 4.7 4.7 0 0 0-.39 1.888q0 1.574.937 2.853l-.618 1.806 1.891-.597a4.83 4.83 0 0 0 2.695.806M8.11 2q1.196 0 2.286.465 1.089.465 1.878 1.248a5.9 5.9 0 0 1 1.258 1.865A5.6 5.6 0 0 1 14 7.845a5.6 5.6 0 0 1-.469 2.267 5.9 5.9 0 0 1-1.258 1.865 6 6 0 0 1-1.878 1.248 5.8 5.8 0 0 1-2.286.465 5.84 5.84 0 0 1-2.851-.729L2 14l1.063-3.14a5.67 5.67 0 0 1-.844-3.015q0-1.186.469-2.267a5.9 5.9 0 0 1 1.257-1.865 6 6 0 0 1 1.88-1.248A5.8 5.8 0 0 1 8.108 2"/>
	</symbol>
	<symbol id="icon-whatsapp" viewBox="0 0 16 16">
		<path d="M2.256 7.948c0 1.011.265 2 .77 2.87l-.818 2.974 3.058-.798a5.8 5.8 0 0 0 2.756.699h.002c3.18 0 5.767-2.575 5.768-5.74a5.7 5.7 0 0 0-1.688-4.062 5.75 5.75 0 0 0-4.08-1.683c-3.18 0-5.767 2.575-5.768 5.74"/>
		<path d="M2.05 7.946c0 1.048.275 2.071.798 2.973L2 14l3.167-.827a6 6 0 0 0 2.856.724h.002c3.293 0 5.974-2.668 5.975-5.946 0-1.59-.62-3.083-1.748-4.207A5.95 5.95 0 0 0 8.025 2C4.732 2 2.051 4.667 2.05 7.946m1.886 2.818-.118-.187a4.9 4.9 0 0 1-.759-2.63C3.06 5.22 5.288 3.003 8.027 3.003c1.327 0 2.573.516 3.51 1.45a4.9 4.9 0 0 1 1.454 3.496c-.001 2.725-2.229 4.943-4.966 4.943h-.002a5 5 0 0 1-2.527-.69l-.182-.106-1.88.49z"/>
		<path d="M6.532 5.46c-.112-.247-.23-.252-.336-.257C6.109 5.2 6.009 5.2 5.91 5.2a.55.55 0 0 0-.398.186c-.137.149-.523.508-.523 1.24 0 .73.535 1.437.61 1.537s1.032 1.647 2.55 2.243c1.261.495 1.518.396 1.791.372.274-.025.884-.36 1.008-.707s.124-.644.087-.706-.137-.1-.286-.174a25 25 0 0 0-1.02-.483c-.137-.05-.236-.075-.336.074s-.386.483-.473.583-.174.111-.323.037-.63-.231-1.2-.738a4.5 4.5 0 0 1-.831-1.029c-.087-.148-.01-.229.065-.303.067-.067.15-.174.224-.26s.1-.15.15-.248c.05-.1.024-.186-.013-.26s-.327-.81-.46-1.104"/>
		<defs>
			<linearGradient id="a" x1="602" x2="602" y1="1202" y2="2" gradientUnits="userSpaceOnUse">
				<stop stop-color="#1FAF38"/>
				<stop offset="1" stop-color="#60D669"/>
			</linearGradient>
			<linearGradient id="b" x1="602" x2="602" y1="1202" y2="2" gradientUnits="userSpaceOnUse">
				<stop stop-color="#F9F9F9"/>
				<stop offset="1" stop-color="#fff"/>
			</linearGradient>
		</defs>
	</symbol>
	<symbol id="icon-youtube-o" viewBox="0 0 16 16">
		<path d="M14.705 4.53a1.75 1.75 0 0 0-1.235-1.235C12.38 3 8 3 8 3s-4.38 0-5.47.295A1.75 1.75 0 0 0 1.295 4.53 18 18 0 0 0 1 7.9a18 18 0 0 0 .295 3.37 1.75 1.75 0 0 0 1.235 1.235C3.62 12.8 8 12.8 8 12.8s4.38 0 5.47-.295a1.75 1.75 0 0 0 1.235-1.235c.204-1.112.303-2.24.295-3.37a18 18 0 0 0-.295-3.37M6.6 10V5.8l3.635 2.1z"/>
	</symbol>
	<symbol id="icon-youtube" viewBox="0 0 16 16">
		<path d="M14.691 4.535a1.76 1.76 0 0 0-1.239-1.239C12.366 3 7.993 3 7.993 3s-4.373.009-5.46.305a1.76 1.76 0 0 0-1.238 1.239c-.329 1.93-.456 4.87.009 6.721a1.76 1.76 0 0 0 1.239 1.239c1.086.296 5.459.296 5.459.296s4.372 0 5.459-.296a1.76 1.76 0 0 0 1.239-1.239c.347-1.932.453-4.87-.009-6.73"/>
		<path d="m6.601 10 3.628-2.1L6.6 5.8z"/>
	</symbol>
	<symbol id="search" viewBox="0 0 14 14">
		<path stroke-width="2" d="M11.875 11.345 9.043 8.513a4.132 4.132 0 1 0-.53.53l2.832 2.832zM2.5 5.875a3.375 3.375 0 1 1 6.75 0 3.375 3.375 0 0 1-6.75 0Z"/>
	</symbol>
	<symbol id="separator" viewBox="0 0 30 50">
		<path stroke-linecap="round" d="m10 3 10 24.077L10 48"/>
	</symbol>
</svg>
